<svg width="24" height="32" viewBox="0 0 24 32" fill="none" xmlns="http://www.w3.org/2000/svg">
<path d="M19.9188 16.7938C19.9062 14.5 20.9438 12.7687 23.0438 11.4937C21.8688 9.8125 20.0938 8.8875 17.75 8.70625C15.5312 8.53125 13.1062 10 12.2188 10C11.2812 10 9.13125 8.76875 7.44375 8.76875C3.95625 8.825 0.25 11.55 0.25 17.0938C0.25 18.7313 0.55 20.4229 1.15 22.1688C1.95 24.4625 4.8375 30.0875 7.85 29.9937C9.425 29.9562 10.5375 28.875 12.5875 28.875C14.575 28.875 15.6062 29.9937 17.3625 29.9937C20.4 29.95 23.0125 24.8375 23.775 22.5375C19.7 20.6187 19.9188 16.9125 19.9188 16.7938ZM16.3813 6.53125C18.0875 4.50625 17.9312 2.6625 17.8813 2C16.375 2.0875 14.6312 3.025 13.6375 4.18125C12.5437 5.41875 11.9 6.95 12.0375 8.675C13.6688 8.8 15.1562 7.9625 16.3813 6.53125Z" fill="black"/>
</svg>
